<?xml version="1.0" standalone="yes"?>
<svg xmlns="http://www.w3.org/2000/svg" width="500" height="500">
<path style="fill:#ddcdb8; stroke:none;" d="M0 0L0 500L36 500C39.6226 500 46.2277 501.253 49.3009 498.972C52.7849 496.386 53.0505 489.859 54 486C56.9384 474.056 59.1603 461.869 62.4252 450C72.181 414.534 85.2037 379.63 108.899 351.093C114.904 343.861 125.082 339.204 132.961 334.265C145.942 326.128 156.015 319.399 171 314.467C179.702 311.602 190.621 311.407 198.787 307.436C203.727 305.034 206.963 298.203 212 295L212 294C194.63 279.705 188.654 262.742 179.819 243C174.592 231.321 168.115 220.201 164.091 208.001C162.028 201.746 164.208 196.222 163.552 190C162.984 184.603 157.547 175.328 153.896 171.286C140.288 156.224 109.197 167.996 91.0394 162.733C86.3125 161.363 80.8816 160.919 77.4329 156.853C74.0529 152.867 75 146.849 75 142C75 130.963 73.796 120.073 74.0139 109C74.0911 105.077 73.1375 98.4807 75.6073 95.2284C79.8202 89.6806 91.8939 92 98 92L141 92C146.522 92 154.914 93.5405 159.907 90.821C164.938 88.0804 166.516 81.6134 169.213 77C172.333 71.6633 177.491 66.3028 182.015 62.1042C190.733 54.0126 201.762 52.5103 212 47.4467C219.121 43.9247 223.804 35.6744 231.004 32.8935C237.267 30.4745 242.953 34.6671 248.91 33.4738C252.11 32.8329 254.174 29.0758 257.579 29.2739C264.425 29.6721 269.937 37.5714 276 40L280 46C286.116 35.119 295.254 39.2602 305 43.0733C321.656 49.5903 334.285 56.986 345.521 72.0038C349.555 77.3954 351.55 89.2768 359 90C361.632 102.279 370.267 111.67 370.99 125C371.727 138.598 360.801 151.969 358.404 165C357.126 171.951 359.867 178.198 360.124 185C360.403 192.372 358.19 200.029 355.971 207C352.893 216.674 346.541 225.371 343.649 235C340.892 244.179 342.297 253.846 338.486 263C336.45 267.891 326.217 278.061 326.921 282.701C327.662 287.576 342.264 290.919 346 293.519C351.965 297.669 357.943 305.302 365.039 307.427C372.151 309.558 379.814 307.931 387 309.11C397.548 310.84 407.5 314.821 418 316.586C429.733 318.559 440.713 320.811 437 335C466.204 350.572 486.419 377.782 499 408L500 408L499.996 133L497 0L0 0z"/>
<path style="fill:#3b2526; stroke:none;" d="M497 0L499 127L500 127L500 0L497 0z"/>
<path style="fill:#ba825c; stroke:none;" d="M244 33L244 34C248.129 35.252 254.266 35.2703 255 30L265 34L267 41L271 39L274 43L276 50L296 40.3611L306 44L306 43C296.712 39.1393 284.709 34.2438 280 46L276 40L257.015 28.9907L244 33z"/>
<path style="fill:#90453c; stroke:none;" d="M255 30L250 36L253 34L262 37L262 36L257 33L260 34L262 33L262 32L255 30z"/>
<path style="fill:#ba825c; stroke:none;" d="M231 32L231 33L235 33L231 32z"/>
<path style="fill:#90453c; stroke:none;" d="M228 36L232 35L232 36L225 40L232 34L241 33C236.841 31.3037 230.649 32.2344 228 36z"/>
<path style="fill:#ba825c; stroke:none;" d="M241.667 32.3333L242.333 32.6667L241.667 32.3333z"/>
<path style="fill:#3b2526; stroke:none;" d="M260 32L262 37L253 34L238 33L238 34L243 37C229.25 34.4474 223.317 42.6951 212 48.4707C198.557 55.3311 186.956 56.7094 176.464 69.0394C170.256 76.3344 166.878 89.325 157.996 93.821C152.8 96.4516 144.676 95 139 95C125.62 95 112.333 96 99 96C94.0986 96 85.7835 94.406 81.3179 96.6034C77.6348 98.4157 79 105.667 79 109L79 142C79 145.52 77.8819 151.679 81.3179 153.972C85.9123 157.038 96.6386 155 102 155C118.909 155 135.29 154.75 152 157C153.615 171.605 166.187 183.864 169.471 198C170.888 204.102 168.629 215.126 174 219L173 215C176.076 214.487 175.165 207.913 175.588 205C177.069 194.788 175.86 184.224 177.051 173.981C177.532 169.843 179.586 166.064 184 168L184 166L191 169L195 162L197 165L196 163L197 163L204.994 170.304L196 181L201 179L226 180L220 177C221.425 173.873 224.95 169.454 228 173L243 171L242 173L242 174L248 170L246 176L260 169L264 165L277 159L276 164L286 159C286.776 167.41 278.61 169.614 274 175L316 173L319 167L316 168L316 167L324 160L325 166L328 162L329 162L344 206L346 206C348.783 196.672 342.446 178.691 352 173L351 170L353 169L357 170C354.866 162.46 359.412 150.087 365 145L364 133C374.826 129.742 364.301 108.774 360.784 102C351.234 83.6065 341.563 63.9599 324 51.7484C320.074 49.0188 315.363 49.246 311.17 47.196C301.521 42.4783 284.542 38.9106 278 51L276 51L260 32z"/>
<path style="fill:#ba825c; stroke:none;" d="M228.667 33.3333L229.333 33.6667L228.667 33.3333z"/>
<path style="fill:#90453c; stroke:none;" d="M243 33L244 34L243 33z"/>
<path style="fill:#ba825c; stroke:none;" d="M257 33L260 35L257 33z"/>
<path style="fill:#90453c; stroke:none;" d="M263 33L263 35L265 35L263 33z"/>
<path style="fill:#ba825c; stroke:none;" d="M227 34L212 47L212 48L232 36L232 35L227 34M232 34L232 35L239 35L232 34z"/>
<path style="fill:#90453c; stroke:none;" d="M235 35L235 36L243 37C240.92 33.8827 238.493 34.5977 235 35M245 34L246 35L245 34M247.667 35.3333L248.333 35.6667L247.667 35.3333M264.333 36.6667L264.667 37.3333L264.333 36.6667z"/>
<path style="fill:#ddcdb8; stroke:none;" d="M267 36L268 37L267 36z"/>
<path style="fill:#90453c; stroke:none;" d="M265.333 38.6667L265.667 39.3333L265.333 38.6667M267 42L272 43L271 39L267 42M223 40L224 41L223 40M257 41L261 44L260 47L263 46L261 40L257 41M266 40L267 41L266 40M283 44L283 45L300 42C295.127 38.6949 287.908 41.6212 283 44M222 41L223 42L222 41M220 42L221 43L220 42z"/>
<path style="fill:#ba825c; stroke:none;" d="M279.333 42.6667L279.667 43.3333L279.333 42.6667z"/>
<path style="fill:#90453c; stroke:none;" d="M301 42L302 43L301 42M219 43L220 44L219 43z"/>
<path style="fill:#ba825c; stroke:none;" d="M259 43L260 44L259 43z"/>
<path style="fill:#90453c; stroke:none;" d="M272.667 43.3333L273.333 43.6667L272.667 43.3333M303 43L304 44L303 43M217 44L218 45L217 44z"/>
<path style="fill:#ba825c; stroke:none;" d="M260.333 44.6667L260.667 45.3333L260.333 44.6667z"/>
<path style="fill:#90453c; stroke:none;" d="M306.667 44.3333L307.333 44.6667L306.667 44.3333z"/>
<path style="fill:#ba825c; stroke:none;" d="M308 44L308 45C316.958 47.3236 324.375 50.1808 330 58L331 58C326.659 48.6983 317.362 45.8166 308 44z"/>
<path style="fill:#90453c; stroke:none;" d="M216 45L217 46L216 45M273 45L274 46L273 45M282 45L283 46L282 45M309 45L320 50L309 45M215 46L216 47L215 46M274 46L275 50L276 50L274 46M281 46L282 47L281 46M214 47L215 48L214 47M278 49L281 48L278 49z"/>
<path style="fill:#ba825c; stroke:none;" d="M206 49L206 50L211 49L206 49z"/>
<path style="fill:#90453c; stroke:none;" d="M211.667 48.3333L212.333 48.6667L211.667 48.3333M209 49L210 50L209 49M321 49L322 50L321 49z"/>
<path style="fill:#ba825c; stroke:none;" d="M204 50L205 51L204 50z"/>
<path style="fill:#90453c; stroke:none;" d="M205 50L205 51L208 51L205 50M276.667 50.3333L277.333 50.6667L276.667 50.3333M322 50L323 51L322 50z"/>
<path style="fill:#ba825c; stroke:none;" d="M201.667 51.3333L202.333 51.6667L201.667 51.3333z"/>
<path style="fill:#90453c; stroke:none;" d="M203 51L204 52L203 51M318 51L327 57L318 51M323 51L324 52L323 51z"/>
<path style="fill:#ba825c; stroke:none;" d="M197 52L197 53L200 53L197 52z"/>
<path style="fill:#90453c; stroke:none;" d="M200.667 52.3333L201.333 52.6667L200.667 52.3333M325 52L326 53L325 52z"/>
<path style="fill:#ba825c; stroke:none;" d="M195 53L196 54L195 53z"/>
<path style="fill:#90453c; stroke:none;" d="M196 53L197 54L196 53z"/>
<path style="fill:#ba825c; stroke:none;" d="M322 53L323 54L322 53z"/>
<path style="fill:#90453c; stroke:none;" d="M326 53L327 54L326 53z"/>
<path style="fill:#ba825c; stroke:none;" d="M193 54L194 55L193 54z"/>
<path style="fill:#90453c; stroke:none;" d="M194 54L195 55L194 54M327 54L328 55L327 54z"/>
<path style="fill:#ba825c; stroke:none;" d="M191 55L192 56L191 55z"/>
<path style="fill:#90453c; stroke:none;" d="M192 55L193 56L192 55M328 55L329 56L328 55z"/>
<path style="fill:#ba825c; stroke:none;" d="M189 56L188 58L189 56z"/>
<path style="fill:#90453c; stroke:none;" d="M190 56L191 57L190 56M329 56L330 57L329 56M189 57L190 58L189 57z"/>
<path style="fill:#ba825c; stroke:none;" d="M186 58L177 67L187 59L186 58z"/>
<path style="fill:#90453c; stroke:none;" d="M187 58L188 59L187 58z"/>
<path style="fill:#ba825c; stroke:none;" d="M331 58L332 59L331 58z"/>
<path style="fill:#90453c; stroke:none;" d="M186 59L187 60L186 59z"/>
<path style="fill:#ba825c; stroke:none;" d="M332 59L334 61L332 59z"/>
<path style="fill:#90453c; stroke:none;" d="M184 60L185 61L184 60M332 60L333 61L332 60M183 61L184 62L183 61z"/>
<path style="fill:#ba825c; stroke:none;" d="M334 61L334 62L338 64L334 61z"/>
<path style="fill:#90453c; stroke:none;" d="M182.333 62.6667L182.667 63.3333L182.333 62.6667M335 62L336 63L335 62M336 63L337 64L336 63M181 64L182 65L181 64z"/>
<path style="fill:#ba825c; stroke:none;" d="M338 64L339 65L338 64z"/>
<path style="fill:#90453c; stroke:none;" d="M179 65L180 66L179 65z"/>
<path style="fill:#ba825c; stroke:none;" d="M339 65L340 66L339 65M340 66L342 68L342 66L340 66z"/>
<path style="fill:#90453c; stroke:none;" d="M177 67L178 68L177 67M176 68L177 69L176 68z"/>
<path style="fill:#ba825c; stroke:none;" d="M342 68C350.313 82.6605 362.932 98.5939 367.24 115C369.006 121.726 372.12 129.736 365 134C365.388 139.817 364.227 146.838 360 151L360 152L361 154L363 154C366.014 146.335 371.201 135.161 371.374 126.91C371.668 112.944 363.181 102.434 359 90C350.743 88.4396 348.717 73.1841 342 68M175 69L163 88L175 69z"/>
<path style="fill:#90453c; stroke:none;" d="M342 69L343 70L342 69M175 70L176 71L175 70M343.333 70.6667L343.667 71.3333L343.333 70.6667M174 71L175 72L174 71M173 72L174 73L173 72M344 72L345 73L344 72M172.333 73.6667L172.667 74.3333L172.333 73.6667M345 73L346 74L345 73M191 77L194 74L191 77M346.333 74.6667L346.667 75.3333L346.333 74.6667M171 75L172 76L171 75M170 76L170 79L171 79L170 76M185 79L189 77L185 79M347 77L348 78L347 77M348.333 78.6667L348.667 79.3333L348.333 78.6667M169 79L170 80L169 79M168 80L169 81L168 80M349.333 81.6667L349.667 82.3333L349.333 81.6667M167 82L168 83L167 82M350.333 83.6667L350.667 84.3333L350.333 83.6667M166 84L167 85L166 84M351.333 85.6667L351.667 86.3333L351.333 85.6667M165 86L166 87L165 86M200 86L192 91L193 93L190 96C193.587 94.2337 200.098 90.2557 200 86M164 87L165 88L164 87M163 88C157.116 95.8954 147.869 94 139 94C126.005 94 112.99 94.2499 100 94.1396C94.7184 94.0948 85.0622 93.3795 80.2785 95.6034C75.9133 97.6328 77.0834 104.24 77.5756 108C79.0264 119.082 78 130.83 78 142C78 145.691 76.7159 152.569 80.3179 154.972C83.722 157.244 90.9657 156.238 95 156.715C111.229 158.629 128.625 156 145 156L145 155L100 155C95.0121 155 86.5755 156.594 82.1481 153.972C78.1212 151.588 79.0003 145.966 79 142L79 110C79 106.309 77.7159 99.4314 81.3179 97.0278C85.5653 94.1935 95.0659 96 100 96C114.654 96 129.292 95 144 95C149.691 95 163.186 96.698 163 88M213.667 88.3333L214.333 88.6667L213.667 88.3333M352 88L353 89L352 88z"/>
<path style="fill:#ba825c; stroke:none;" d="M162 89L163 90L162 89z"/>
<path style="fill:#90453c; stroke:none;" d="M353 89L354 90L353 89z"/>
<path style="fill:#ba825c; stroke:none;" d="M161 90L162 91L161 90z"/>
<path style="fill:#90453c; stroke:none;" d="M354 90L355 91L354 90z"/>
<path style="fill:#ba825c; stroke:none;" d="M212 294L212 295L194 308L194 309L213 296L213.725 330L227 372L224 371C223.628 374.945 223.356 378.076 228 378C229.817 388.67 234.163 392.931 245 395L244 399L251 399L252 395L255 399L265 395L271 392L277 390L277 389L275 388L287 388L286 384L291 382L290 379L291 378L294 379C294.059 375.739 294.87 374.854 298 374C303.574 362.951 318.265 356.244 320 343C330.03 339.915 341.164 312 337.905 302.001C335.679 295.171 325.118 291.804 326.627 283.999C328.04 276.697 336.119 270.286 338.885 263C342.242 254.158 341.007 244.797 343.649 236C346.645 226.024 353.238 217.083 356.279 207C361.607 189.33 358.23 172.598 362 155L355 171C359.564 183.244 359.201 193.916 354 206L350 183L349 183L348 211L349 211L353 206L353 210L351 209L351 215L346 216L345 227L344 227C342.092 211.902 340.433 200.244 334.603 186C332.958 181.98 327.848 171.446 323 178L308 179L308 180L310 182L305 182L305 185C319.542 187.774 312.776 192.549 305 198L305 195L292 199L293 204L298 204L298 205L290 209C279.582 205.691 262.683 210.201 267 196L270 197L271 194L275 200L276 200C277.344 195.359 282.979 186.412 279 184L286 180C283.303 179.146 282.614 179.149 282 182L281 182L281 179L269 178L269 177L272 166L271 166L269 168L270 166L269 166L259 175C253.388 174.617 247.795 175.881 245 181L244 181L244 176L236 176L237 173L236 172L231 173C229.98 175.899 229.772 177.308 233 178L232 182L189 184L190 175L187 176L188 172L180 176L177 233L176 233C175.104 227.795 171.912 223.907 170.556 218.961C168.565 211.692 170.272 204.286 168.613 197C166.931 189.607 161.767 183.84 158.876 177C155.9 169.958 153.62 158.825 144.996 156.434C129.043 152.01 110.341 158.57 94 156.424C89.9463 155.892 83.6363 157.192 80.3179 154.397C77.0013 151.602 78 145.84 78 142C78 131.119 78.8571 119.834 77.8302 109C77.4322 104.8 75.8733 98.8051 80.2785 96.0278C84.9771 93.0656 95.5752 94.4559 101 94.4298C113.982 94.3672 126.997 94 140 94C146.967 94 154.596 95.0818 161 92C155.364 90.6462 147.912 92 142 92L99 92C92.962 92 82.4943 90.0133 77.1481 93.179C72.6243 95.8578 74.0688 103.527 74.0108 108.015C73.8549 120.078 75 131.972 75 144C75 148.821 74.0574 154.961 78.2245 158.415C90.0406 168.211 113.782 165.821 128 164.911C138.249 164.256 148.566 163.934 155.037 173.478C157.94 177.76 162.363 184.909 163.205 190C164.141 195.661 162.009 201.25 163.493 207C166.848 219.995 174.376 231.838 179.819 244C187.921 262.105 193.391 283.389 212 294z"/>
<path style="fill:#90453c; stroke:none;" d="M355 91L356 92L355 91M356 92L357 93L356 92M357 94L358 95L357 94M250 95L249 97L251 97L250 95M242 96L242 99L243 99L242 96M358.333 96.6667L358.667 97.3333L358.333 96.6667M187 98L188 99L187 98M212 101L215 98L212 101M359.333 98.6667L359.667 99.3333L359.333 98.6667M234 100L233 103L234 100M237 100L235 105L239 100L237 100M360.333 100.667L360.667 101.333L360.333 100.667M361 102L363 107L364 107L361 102M273 103L275 105L273 103M261.667 104.333L262.333 104.667L261.667 104.333M271 104L272 105L271 104M277 104L278 105L277 104M260 107L262 111L260 107M264.333 107.667L264.667 108.333L264.333 107.667M364.333 107.667L364.667 108.333L364.333 107.667M254 109L255 110L254 109M268 109L269 110L268 109M365.333 109.667L365.667 110.333L365.333 109.667M365 112L367 122L368 122L367 112L365 112z"/>
<path style="fill:#1f3f9b; stroke:none;" d="M123.667 114.333L124.333 114.667L123.667 114.333z"/>
<path style="fill:#90453c; stroke:none;" d="M145 135L143 130C140.695 130.667 134.788 133.705 132.833 133C130.226 132.06 128.759 129.023 126 128.333C123.924 127.814 121.958 129.625 120.167 127.833C118.109 125.776 121.392 116.667 124.667 116.667C127.516 116.667 128.051 121.496 131 121.667C134.112 121.847 147 117.209 147 123C150.988 115.944 134.435 119.074 131.09 118.246C128.321 117.561 126.232 114.618 123.119 115.662C119.288 116.946 115.333 127.252 118.618 130.343C120.379 132.001 122.867 130.861 124.961 131.308C127.739 131.901 129.334 134.644 132.05 135.268C136.522 136.294 139.752 133.191 145 135z"/>
<path style="fill:#ba825c; stroke:none;" d="M143 130L144 134L145 134L148 121C142.484 119.691 136.42 121.524 131.09 120.278C128.529 119.679 126.251 116.166 123.404 117.407C120.324 118.749 117.601 126.517 121.322 128.351C129.286 132.277 134.734 133.032 143 130z"/>
<path style="fill:#90453c; stroke:none;" d="M368 122L369 123L368 122M369 123L369 126L370 126L369 123M146 124L147 125L146 124M146.333 127.667L146.667 128.333L146.333 127.667M369.333 128.667L369.667 129.333L369.333 128.667M145.333 131.667L145.667 132.333L145.333 131.667M368 131L367 133L369 133L368 131z"/>
<path style="fill:#1f3f9b; stroke:none;" d="M136 133L137 134L136 133z"/>
<path style="fill:#90453c; stroke:none;" d="M364 136L365 136L367 134C364.86 132.882 364.473 133.749 364 136M365 136L363 144L364 144L365 136M364 145L365 146L364 145M363 146L364 147L363 146M362 147L359 151L362 147M305.333 152.667L305.667 153.333L305.333 152.667M360 152L360 156L361 156L360 152M302 155L300 168L302 166L303 166L305 168L304 165C310.669 168.133 313.165 164.433 314 158L308 159L307 159L302 155M146 156L146 157L156 167L152 157L146 156M359 156L360 157L359 156M285 157L286 158L285 157M358 157L358 162L359 162L358 157M264 165L260 169C259.155 164.241 248.14 174.407 246 176L248 170L242 174L243 171C237.431 169.732 232.842 169.805 228 173C226.714 167.122 220.61 173.597 220 177L226 180L201 179L196 181C204.386 172.052 208.919 170.732 196 163L197 165L196 165L195 162L191 169L189 167L184 166L184 168C179.357 165.174 177.436 169.689 176.969 174C175.936 183.543 176 193.406 176 203L177 203L180 176L188 172L187 176L190 175L189 184L232 182L233 178L231 173L236 172L237 173L236 176L244 176L244 181L245 181C248.537 176.621 253.373 174.892 259 175L270 166L269 168L271 166L272 166L269 177L269 178L281 182L282 182L282 179L286 180L279 184L282 185L276 200L275 200L271 194L270 197L267 196C260.849 209.896 279.949 206.701 290 209L298 205L298 204L293 204L292 199L305 195L305 198C314.54 193.323 319.962 186.615 305 185L305 182L310 182L308 180L308 179L323 178C329.029 173.494 332.697 182.341 334.603 187C340.316 200.965 341.305 212.484 344 227L345 227L346 216L351 215L351 209L353 210L353 206L349 211L348 211L349 183L350 183L349 186C354.422 191.25 352.253 199.271 354 206C360.188 195.872 360.229 181.417 355 171L357 172L357 171L353 169L351 170L352 173C342.789 176.302 347.92 197.956 346 206L344 206C341.392 192.562 336.46 173.416 329 162L328 162L325 166L324 160L316 167L316 168L319 167L316 173L274 175C279.32 170.613 287.818 167.15 286 159L276 164L277 159L264 165M356 162L356 169L357 169L358 162L356 162M156.333 168.667L156.667 169.333L156.333 168.667M218.667 169.333L219.333 169.667L218.667 169.333M357 169L358 170L357 169M157 171L157 174L158 174L157 171z"/>
<path style="fill:#ba825c; stroke:none;" d="M182 171L181 175L182 175L182 171z"/>
<path style="fill:#90453c; stroke:none;" d="M216.667 171.333L217.333 171.667L216.667 171.333M158 174L160 181L161 181L158 174z"/>
<path style="fill:#ba825c; stroke:none;" d="M227 175L228 176L227 175M191 176L192 177L191 176z"/>
<path style="fill:#90453c; stroke:none;" d="M235 176L234 178L235 176z"/>
<path style="fill:#ba825c; stroke:none;" d="M313.667 176.333L314.333 176.667L313.667 176.333z"/>
<path style="fill:#90453c; stroke:none;" d="M325 176L325 178L327 178L327 176L325 176z"/>
<path style="fill:#ba825c; stroke:none;" d="M296.667 179.333L297.333 179.667L296.667 179.333M288 180L289 181L288 180M292 180L293 181L292 180M303 181L304 182L303 181z"/>
<path style="fill:#90453c; stroke:none;" d="M161 182L162 183L161 182M162 183L165 186L162 183z"/>
<path style="fill:#ba825c; stroke:none;" d="M287 183L288 184L287 183M303 183L304 184L303 183z"/>
<path style="fill:#90453c; stroke:none;" d="M308 183L308 184L313 186L308 183z"/>
<path style="fill:#3b2526; stroke:none;" d="M291 184L291 185L295 185L291 184M296 187L303 192L308 191C302.428 184.161 298.743 185.04 290.985 185.986C288.134 186.334 282.487 186.77 283.458 191.05C285.771 201.25 296.744 195.494 296 187z"/>
<path style="fill:#90453c; stroke:none;" d="M212 189L212 190L225 190L212 189M165 189L166 190L165 189z"/>
<path style="fill:#ba825c; stroke:none;" d="M297 189L296 194L299 189L297 189z"/>
<path style="fill:#90453c; stroke:none;" d="M166.333 190.667L166.667 191.333L166.333 190.667M296.333 190.667L296.667 191.333L296.333 190.667M202 196L198 204L234 208L234 201L227 191L202 196M272 191L273 192L272 191M167.333 192.667L167.667 193.333L167.333 192.667z"/>
<path style="fill:#ba825c; stroke:none;" d="M282 192L281 195L285 196L282 192z"/>
<path style="fill:#90453c; stroke:none;" d="M283 192L284 193L283 192M286 192L287 194L288 194L289 192L286 192M284 193L285 194L284 193M168.333 194.667L168.667 195.333L168.333 194.667z"/>
<path style="fill:#3b2526; stroke:none;" d="M213 194L214 200L219 199L216 201C219.661 206.627 228.238 200.504 224.918 195.742C222.878 192.816 216.065 194 213 194M208 195L205 199L208 195z"/>
<path style="fill:#ba825c; stroke:none;" d="M215 202L212 195C206.776 197.99 210.489 201.295 215 202z"/>
<path style="fill:#90453c; stroke:none;" d="M275.333 195.667L275.667 196.333L275.333 195.667z"/>
<path style="fill:#3b2526; stroke:none;" d="M278 195L278 199L283 197L278 195z"/>
<path style="fill:#90453c; stroke:none;" d="M208 196L209 197L208 196M169 197L169 204L170 204L169 197M213.333 198.667L213.667 199.333L213.333 198.667z"/>
<path style="fill:#ba825c; stroke:none;" d="M227 198L226 201L227 198z"/>
<path style="fill:#3b2526; stroke:none;" d="M231 200L226 202L226 204L233 203L231 200z"/>
<path style="fill:#90453c; stroke:none;" d="M175 205C175 209.118 176.242 215.81 173 215L174 219L171 206L170 206C166.592 215.509 173.587 224.181 176 233L177 233L177 205L175 205M238 206L234 209L233 214L243 212L243 209L240 209L242 207L238 206M231 209L230 211L232 211L231 209z"/>
<path style="fill:#ddcdb8; stroke:none;" d="M312 214L308 213L310 220L313 220L312 215L317 211L312 214z"/>
<path style="fill:#90453c; stroke:none;" d="M230.667 212.333L231.333 212.667L230.667 212.333z"/>
<path style="fill:#ddcdb8; stroke:none;" d="M306 216L307 217L306 216z"/>
<path style="fill:#ba825c; stroke:none;" d="M311 216L312 217L311 216z"/>
<path style="fill:#ddcdb8; stroke:none;" d="M253 228L247 233C250.415 241.73 271.697 238.887 270.597 229.981C269.34 219.798 252.097 214.353 253 228M310 225L313 223L310 225M306 225L307 226L306 225z"/>
<path style="fill:#90453c; stroke:none;" d="M276 229C284.455 235.519 284.065 252.638 272 244L274 247L266 248L269 245L269 244C264.997 246.127 264.691 248.217 267 252L266 254C262.072 254.644 256.04 252.148 255 257L240 252L244 256L243 260L256 259C256.958 263.48 261.219 263.084 265 262L265 255L272 258L271 255L275 255L274 259L275 257C281.05 260.697 287.515 239.374 286.254 234.001C285.046 228.854 280.459 226.028 276 229M343 228L344 229L343 228z"/>
<path style="fill:#ddcdb8; stroke:none;" d="M273 232L274 236L280 235L273 232M254 240L255 246L254 240z"/>
<path style="fill:#3b2526; stroke:none;" d="M266 248L274 247C270.919 243.957 268.215 244.224 266 248z"/>
<path style="fill:#90453c; stroke:none;" d="M248 246L248 247L251 247L248 246M246 247L247 251L255 251L254 247L246 247z"/>
<path style="fill:#3b2526; stroke:none;" d="M247 247L247 249L252 249L252 247L247 247z"/>
<path style="fill:#ddcdb8; stroke:none;" d="M287.333 247.667L287.667 248.333L287.333 247.667M285 248L286 249L285 248z"/>
<path style="fill:#ba825c; stroke:none;" d="M267 250L268 251L267 250M270 250L271 251L270 250z"/>
<path style="fill:#ddcdb8; stroke:none;" d="M205 253L206 254L205 253z"/>
<path style="fill:#ba825c; stroke:none;" d="M279 254L278 256L279 254M276 256L277 257L276 256z"/>
<path style="fill:#ddcdb8; stroke:none;" d="M274 262L275 263L274 262z"/>
<path style="fill:#90453c; stroke:none;" d="M267 268L267 269L275 269L267 268M276 276L275 280C282.761 279.84 296.107 277.893 298 269C282.825 266.585 264.749 270.359 250 273.87C247.597 274.442 232.793 275.199 235.176 279.625C236.863 282.758 243.033 282.2 245.961 281.941C255.774 281.073 265.331 276.22 276 276z"/>
<path style="fill:#3b2526; stroke:none;" d="M269 272L269 273C275.471 273 289.936 275.752 294 270L269 272z"/>
<path style="fill:#90453c; stroke:none;" d="M331 271L332 272L331 271z"/>
<path style="fill:#3b2526; stroke:none;" d="M264 273L264 274L267 274L264 273z"/>
<path style="fill:#90453c; stroke:none;" d="M329 273L322 280C312.895 292.046 301.252 309.296 288 317L288 318C296.364 316.733 309.65 304.412 311 296L314 296C316.261 288.359 330.7 281.431 329 273z"/>
<path style="fill:#3b2526; stroke:none;" d="M254 274L254 275L259 275L254 274M250.667 275.333L251.333 275.667L250.667 275.333M236 279L239 277L236 279z"/>
<path style="fill:#90453c; stroke:none;" d="M271 277L272 278L271 277M264 278L264 281L265 281L264 278M267 278L267 280L269 280L269 278L267 278M326 285L326 286L329 286L326 285z"/>
<path style="fill:#ba825c; stroke:none;" d="M329 285L329 286L332 287L329 285z"/>
<path style="fill:#3b2526; stroke:none;" d="M326 286L340 306C344.815 296.396 335.062 286.928 326 286z"/>
<path style="fill:#90453c; stroke:none;" d="M330 286L331 287L330 286M332 287L333 288L332 287z"/>
<path style="fill:#ba825c; stroke:none;" d="M333 287L334 288L333 287z"/>
<path style="fill:#90453c; stroke:none;" d="M326.333 288.667L326.667 289.333L326.333 288.667M334 288L335 289L334 288z"/>
<path style="fill:#ba825c; stroke:none;" d="M335 288L336 289L335 288M336.667 289.333L337.333 289.667L336.667 289.333z"/>
<path style="fill:#90453c; stroke:none;" d="M327 290L328 291L327 290z"/>
<path style="fill:#1f3f9b; stroke:none;" d="M337 290C341.514 301.638 341.411 309.889 335 321L330 338L329 338L330 334L329 334C327.851 337.77 328.236 341.789 324 343L321 347L321 348L324 347C320.923 353.581 315.643 361.754 309 365L309 366L312 367L307 374L304 373L298 391L291 391L292 393L272 406C269.421 405.366 268 405.181 268 408L264 406C249.23 409.516 242.095 399.983 229 398L219 385L216 386L211.09 358L204.177 322L212 299C206.136 298.169 203.468 303.205 201.124 308C196.733 316.982 196.656 332.805 195.282 343C190.657 377.333 183.765 411.434 175.335 445C170.701 463.451 161.403 480.478 161 500L172 500L172 477C177.086 477.646 187.523 477.247 191.682 480.028C202.303 487.13 181.969 488 179 488C180.046 494.022 186.862 493.595 192 494L192 500L200 500L200.106 482.343L209 480.985L226.957 484.652L237 494C237 490.887 236.179 486.028 238.603 483.603C241.188 481.019 246.694 482 250 482C261.375 482 269.438 483.14 274 495C279.783 493.09 282.191 485.761 288 482.765C302.402 475.336 319.027 484.738 321 500L324 500C324 495.816 321.699 483.621 324.643 480.678C326.685 478.637 331.341 479.205 334 478.866C350.495 476.762 355.989 483.709 356 500L371 500L370 491L371 491L373 500L379 500C377.513 489.932 372.031 480.555 368.695 471C364.747 459.693 362.676 448.762 360.754 437C359.759 430.91 361.032 417.831 356 414C357.823 406.342 358.237 395.567 356 388L351 396L349 396L349 380L352 380L354 376L354 365L353 365L351 367C353.188 350.74 361.239 334.841 362.829 319C363.41 313.214 362.797 303.219 355 304C351.138 296.557 344.738 292.635 337 290z"/>
<path style="fill:#90453c; stroke:none;" d="M338 290L339 291L338 290z"/>
<path style="fill:#ba825c; stroke:none;" d="M339.667 290.333L340.333 290.667L339.667 290.333z"/>
<path style="fill:#90453c; stroke:none;" d="M329 291L330 292L329 291z"/>
<path style="fill:#ba825c; stroke:none;" d="M341 291L341 292L345 293L345 292L341 291z"/>
<path style="fill:#90453c; stroke:none;" d="M330 292L331 293L330 292M343 292L344 293L343 292M331 293L332 294L331 293M345 293L346 294L345 293z"/>
<path style="fill:#ba825c; stroke:none;" d="M346 293L347 294L346 293z"/>
<path style="fill:#90453c; stroke:none;" d="M332 294L333 295L332 294z"/>
<path style="fill:#ba825c; stroke:none;" d="M347 294L348 295L347 294M348 295L349 296L348 295z"/>
<path style="fill:#90453c; stroke:none;" d="M209 297L209 298L212 297L213 300L214 300L213 296L209 297M334 296L335 297L334 296z"/>
<path style="fill:#ba825c; stroke:none;" d="M349 296L350 297L349 296z"/>
<path style="fill:#3b2526; stroke:none;" d="M211 297C211.318 305.879 204.704 313.061 204.091 322C203.188 335.176 209.383 347.288 211.176 360C212.274 367.785 210.601 381.111 218 386C217.848 381.131 218.3 357.611 214 357C217.017 343.871 208.662 328.844 210.503 315C211.344 308.677 216.041 302.403 211 297z"/>
<path style="fill:#90453c; stroke:none;" d="M335 297L336 298L335 297z"/>
<path style="fill:#ba825c; stroke:none;" d="M350 297L350 298L355 304L360 304L360 303L350 297z"/>
<path style="fill:#90453c; stroke:none;" d="M207 298L208 299L207 298M336 298L337 299L336 298M351 298L352 299L351 298M206 299L207 300L206 299z"/>
<path style="fill:#3b2526; stroke:none;" d="M209.333 299.667L209.667 300.333L209.333 299.667z"/>
<path style="fill:#90453c; stroke:none;" d="M337.333 299.667L337.667 300.333L337.333 299.667M352 299L353 300L352 299M205 300L206 301L205 300M353 300L354 301L353 300M214 301L215 302L214 301M338.333 301.667L338.667 302.333L338.333 301.667M203 303L204 304L203 303M339 303L337 315L338 315L339 303M358 303L359 304L358 303z"/>
<path style="fill:#3b2526; stroke:none;" d="M206 304L207 305L206 304z"/>
<path style="fill:#90453c; stroke:none;" d="M213.333 304.667L213.667 305.333L213.333 304.667z"/>
<path style="fill:#ba825c; stroke:none;" d="M360 304L365 308L365 307L360 304z"/>
<path style="fill:#90453c; stroke:none;" d="M202 305L203 306L202 305z"/>
<path style="fill:#3b2526; stroke:none;" d="M205 306L206 307L205 306z"/>
<path style="fill:#90453c; stroke:none;" d="M212 306L211.289 336L214 357C217.621 357 217.314 365.77 217 369C215.46 384.843 223.326 392.865 236 401.667C267.837 423.776 293.814 385.239 310.333 364C316.268 356.37 325.991 345.544 328 336L327 336L320 343L298 374C294.598 374.593 293.862 375.558 294 379L291 378L290 379L291 382L286 384L287 388C284.884 387.04 272.276 385.799 277 389L277 390L271 392C267.667 391.644 265.967 391.596 265 395L255 399L252 395L251 399L244 399L245 395C234.518 391.956 230.945 388.431 228 378C224.103 376.992 223.986 374.779 224 371L227 372L215.419 336.961L212 306M360 306L361 307L360 306M201 307L202 308L201 307M361 307L362 308L361 307M200 308L201 309L200 308z"/>
<path style="fill:#3b2526; stroke:none;" d="M339 308L338 315L339 315L339 308z"/>
<path style="fill:#90453c; stroke:none;" d="M362 308L362 309L373 325L368 333C367.49 338.231 363.937 343.648 362.571 348.91C359.911 359.16 360.565 372.772 363 383L379 381L379 379L364 380L364 378L368 378L365 376L369 374L373 370L371 374L374 375L375 368L375 364L376 364L379 378L384 376L379 372L380 369L383 370L385 359L386 359C385.959 373.99 385.823 388.994 385.829 404C385.831 411.152 383.695 419.694 393 420L392 417L408 414L409 414L411 413C411.145 404.354 412 395.732 412 387C412 383.881 411.244 379.55 415 379C417.274 375.505 420.219 376.311 424 377L424 378L420 379L420 381L433 389C431.189 376.312 433.166 361.582 435.312 349C436.471 342.201 439.74 331.64 436.848 325.055C433.782 318.073 422.451 318.179 416 317.079C397.517 313.929 381.032 308.393 362 308z"/>
<path style="fill:#ba825c; stroke:none;" d="M368 308L368 309L374 309L368 308M381 308L381 309L384 309L381 308M182 311L182 312L192 310L182 311z"/>
<path style="fill:#90453c; stroke:none;" d="M192 311L190 310L189 310L189 311L191 312L184 320L194 316L197 312L197 311L193 311L193 310L198 310L198 314L199 314L200 309L192 311z"/>
<path style="fill:#3b2526; stroke:none;" d="M363 309L351 367L353 365L354 365L354 376L352 380L349 380L349 396L351 396L356 388L356 414C362.088 421 360.97 439.725 362.285 449C364.835 466.977 374.963 482.551 379 500L424 500L431.653 472L446 453L444 455L443 455L446 449L433 461L438 432L436 433L435.039 378L435 356L434 356L433 389L420 381L420 379L424 378L424 377C420.465 376.049 415.952 374.557 415 379C411.139 379.485 412.001 383.638 412 387C411.997 395.724 411.106 404.339 411 413L409 414L408 414L407 412L392 417L393 420C384.069 419.319 385.951 410.901 385.951 404L386 359L385 359L383 370L379 372L384 376L379 378L376 364L375 364L375 368L371 374L373 370L369 374L365 376L368 378L365 377L364 378L364 380L379 379L379 381L363 383C361.075 372.63 360.323 360.347 362.738 350C364.039 344.428 367.823 338.512 368 333C371.691 332.213 372.18 328.423 373 325L363 309z"/>
<path style="fill:#ba825c; stroke:none;" d="M374 309L374 310L380 310L374 309M386 309L386 310L390 310L386 309z"/>
<path style="fill:#3b2526; stroke:none;" d="M191 310L192 311L191 310M193 310L193 311L197 311L197 312L194 316L184 320L191 312L191 311L177.816 319.489L166 321L166 322L178 321L163.51 366L157 407L146 405L146 406L157 408L152 434L153 434L156 430L159 409L163 410L159 408L162 390L167 390L167 394L164 393L164 398L167 396L169 404C165.749 404.237 162.044 406.933 167 408L167 409L162 414L167 415L167 418L161 417C161.709 421.444 163.606 422.665 168 423L168 429L162 424L162 431L160 430L161 436L161 444L157 442L160 446L166 445L164 447L164 448C165.609 450.642 166.625 452.019 164 454L166 456L166 457L163 464C163.732 474.785 160.096 488.06 153 496L156 497L154 499L154 500L161 500C161.805 481.261 170.208 464.693 175.079 447C182.182 421.203 185.882 395.177 191.001 369C194.738 349.887 200.445 329.248 198 310L193 310z"/>
<path style="fill:#90453c; stroke:none;" d="M362 310L363 311L362 310z"/>
<path style="fill:#3b2526; stroke:none;" d="M382 310L388 321C387.311 316.339 386.32 312.324 382 310z"/>
<path style="fill:#ba825c; stroke:none;" d="M391.667 310.333L392.333 310.667L391.667 310.333z"/>
<path style="fill:#90453c; stroke:none;" d="M186.667 311.333L187.333 311.667L186.667 311.333z"/>
<path style="fill:#ba825c; stroke:none;" d="M393 311L393 312L397 312L393 311M129 336L129 337L145.004 325.529L181 313L163 317.486L145 323.905L129 336z"/>
<path style="fill:#90453c; stroke:none;" d="M132 335L125.62 354L118.194 390.985L122 448L125 447C126.17 462.365 129.671 488.074 143 498L145 464L146 464L145 482L148 483C145.057 487.208 145.911 491.455 151 493L150 496L147 494L146 497L148 498L151 497C151.689 500.197 153.054 499.746 156 499L156 497L153 496C160.124 490.274 165.469 473.093 163 464L166 457L166 456L164 454C168.11 453.115 166.498 450.143 164 448L164 447L166 445L160 446L157 442L161 444L161 436L160 430L162 431L162 424L168 429L168 423C163.939 422.367 162.15 420.966 161 417L167 418L167 415L162 414L167 409L167 408L164 408L169 404L167 396L164 398L164 393L167 394L167 390L165 392L164 392L164 390L162 390L159 408L163 410L159 409C156.602 415.568 153.765 423.175 156 430L153 434L152 434L157 408L146 406L146 405L157 407L166.235 355L178 321L166 322L166 321C175.3 320.52 180.093 319.827 186 312C173.237 312.583 154.991 319.015 144.015 325.529C139.488 328.216 136.802 332.742 132 335z"/>
<path style="fill:#ba825c; stroke:none;" d="M398 312L398 313L404 313L398 312M404 313L404 314L408 315L408 314L404 313z"/>
<path style="fill:#90453c; stroke:none;" d="M336 315L335 320L336 320L336 315z"/>
<path style="fill:#ba825c; stroke:none;" d="M408 315L408 316L412 316L408 315M412 316L412 317L418 317L412 316M418 317L418 318L424 318L418 317z"/>
<path style="fill:#3b2526; stroke:none;" d="M336.333 318.667L336.667 319.333L336.333 318.667z"/>
<path style="fill:#ba825c; stroke:none;" d="M424 318L424 319L428 319L424 318z"/>
<path style="fill:#90453c; stroke:none;" d="M182 319L179 326L182 326L183 326L182 323L182 319z"/>
<path style="fill:#ba825c; stroke:none;" d="M429 319L429 320L432 320L429 319z"/>
<path style="fill:#90453c; stroke:none;" d="M334 320L333 325L334 325L334 320z"/>
<path style="fill:#ba825c; stroke:none;" d="M432 320L432 321L435 321L432 320z"/>
<path style="fill:#3b2526; stroke:none;" d="M335 321L329 338L330 338C332.022 333.676 337.417 325.369 335 321z"/>
<path style="fill:#ba825c; stroke:none;" d="M435 321L436 322L435 321M436 322L437 326L438 326L436 322z"/>
<path style="fill:#1f3f9b; stroke:none;" d="M334 323L335 324L334 323z"/>
<path style="fill:#3b2526; stroke:none;" d="M387.333 323.667L387.667 324.333L387.333 323.667z"/>
<path style="fill:#90453c; stroke:none;" d="M332.333 326.667L332.667 327.333L332.333 326.667z"/>
<path style="fill:#ba825c; stroke:none;" d="M438 326L438 331L439 331L438 326z"/>
<path style="fill:#90453c; stroke:none;" d="M331.333 328.667L331.667 329.333L331.333 328.667z"/>
<path style="fill:#3b2526; stroke:none;" d="M150 329L144 334L146 337L143 344C146.762 342.044 149.284 339.042 147 335L150 335L152 329L150 329z"/>
<path style="fill:#90453c; stroke:none;" d="M178 330L179 331L178 330M330 330L328 335L329 335L330 330z"/>
<path style="fill:#3b2526; stroke:none;" d="M436 330L437 331L436 330z"/>
<path style="fill:#ba825c; stroke:none;" d="M437.333 331.667L437.667 332.333L437.333 331.667M437 335L438 336L437 335z"/>
<path style="fill:#1f3f9b; stroke:none;" d="M52 500L130 500L120 490L120 489C122.541 487.391 126.246 485.401 126.404 481.961C126.599 477.695 121.588 473.221 119.297 470C114.045 462.616 108.803 454.195 108 445L121 466L122 466L116.174 393L125.62 355L132 336C116.417 340.976 105.461 356.351 96.4213 369C85.0985 384.844 79.647 402.818 73.3048 421C64.3861 446.568 55.9553 473.097 52 500z"/>
<path style="fill:#90453c; stroke:none;" d="M174 336L167 364L170 365L170 366L166 366L165 370L184 370L184 368L174 367L174 366L179 365L176 364L178 360L171 361L171 355L175 359L185 360C184.504 356.966 184.126 355.929 181 356L182 350L179 349L179 348L183 348L186 352L186 351L185 346C183.087 346.024 176.279 346.218 181 344L174 336z"/>
<path style="fill:#ba825c; stroke:none;" d="M438.667 336.333L439.333 336.667L438.667 336.333M127 337L128 338L127 337z"/>
<path style="fill:#1f3f9b; stroke:none;" d="M436 433L438 432L433 461L446 449L443 455L444 455L446 453C433.73 466.753 425.637 481.231 424 500L500 500L500 441C500 431.496 501.621 420.302 499.61 411C496.488 396.561 484.358 379.521 475.475 368.015C468.061 358.412 457.91 351.225 449 343.093C446.786 341.071 441.185 335.561 437.792 338.072C433.138 341.516 435.587 355.998 435.406 361C434.542 384.899 436 409.011 436 433z"/>
<path style="fill:#ba825c; stroke:none;" d="M441.667 337.333L442.333 337.667L441.667 337.333M125.667 338.333L126.333 338.667L125.667 338.333z"/>
<path style="fill:#3b2526; stroke:none;" d="M327 338L325 344L327 338z"/>
<path style="fill:#ba825c; stroke:none;" d="M443 338L443 339L469 360C463.635 352.447 451.783 340.986 443 338M124 339L125 340L124 339M110 350L124 340L110 350M443 340L444 341L443 340z"/>
<path style="fill:#90453c; stroke:none;" d="M185 341L185 344L186 344L185 341M120 343L121 344L120 343M182 344L183 345L182 344z"/>
<path style="fill:#3b2526; stroke:none;" d="M323 344L323 346L325 344L323 344z"/>
<path style="fill:#90453c; stroke:none;" d="M115 346L116 347L115 346M114 347L115 348L114 347z"/>
<path style="fill:#3b2526; stroke:none;" d="M310 365C316.275 361.795 321.893 353.654 324 347C317.974 350.079 312.713 358.904 310 365M435 348L436 349L435 348z"/>
<path style="fill:#90453c; stroke:none;" d="M111 349L112 350L111 349z"/>
<path style="fill:#3b2526; stroke:none;" d="M160 349L161 350L160 349z"/>
<path style="fill:#ba825c; stroke:none;" d="M109 350L110 351L109 350z"/>
<path style="fill:#3b2526; stroke:none;" d="M434.333 350.667L434.667 351.333L434.333 350.667z"/>
<path style="fill:#ba825c; stroke:none;" d="M108 351L107 354L108 351z"/>
<path style="fill:#3b2526; stroke:none;" d="M172 351L169 352L169 353L173 352L172 351M176 351L179 353L176 351M385 352L386 353L385 352z"/>
<path style="fill:#ba825c; stroke:none;" d="M106 354L101 362L106 354z"/>
<path style="fill:#3b2526; stroke:none;" d="M178.333 354.667L178.667 355.333L178.333 354.667M363.667 356.333L364.333 356.667L363.667 356.333M384 356L385 357L384 356z"/>
<path style="fill:#ba825c; stroke:none;" d="M469 360L472 363L469 360z"/>
<path style="fill:#3b2526; stroke:none;" d="M340 361L341 362L340 361z"/>
<path style="fill:#ba825c; stroke:none;" d="M100 362L99 365L100 362z"/>
<path style="fill:#3b2526; stroke:none;" d="M173 362L171 365L173 362M368 362L369 363L368 362M331.333 363.667L331.667 364.333L331.333 363.667M340 363L339 365L341 365L340 363z"/>
<path style="fill:#ba825c; stroke:none;" d="M472 363L473 364L472 363z"/>
<path style="fill:#3b2526; stroke:none;" d="M371.333 364.667L371.667 365.333L371.333 364.667z"/>
<path style="fill:#ba825c; stroke:none;" d="M473 364L482 376L473 364M98 365L97 368L98 365z"/>
<path style="fill:#3b2526; stroke:none;" d="M305 374L307 374L312 367C307.261 366.3 304.836 369.411 305 374z"/>
<path style="fill:#90453c; stroke:none;" d="M299 367L300 368L299 367z"/>
<path style="fill:#1f3f9b; stroke:none;" d="M355.667 367.333L356.333 367.667L355.667 367.333z"/>
<path style="fill:#ba825c; stroke:none;" d="M95 368L92 375L93 375L97 368L95 368z"/>
<path style="fill:#3b2526; stroke:none;" d="M338 368L335 379L336 379L340 368L338 368M413 368L414 369L413 368z"/>
<path style="fill:#1f3f9b; stroke:none;" d="M355 369L357 375L357 369L355 369z"/>
<path style="fill:#3b2526; stroke:none;" d="M416 369L418 373L416 369M121.333 370.667L121.667 371.333L121.333 370.667M364 371L365 372L364 371M412 371L414 374L414 371L412 371M425 371L426 372L425 371M120.333 372.667L120.667 373.333L120.333 372.667z"/>
<path style="fill:#90453c; stroke:none;" d="M173 372L172 376L169 373L167 376L164 375L171 378L173 372z"/>
<path style="fill:#3b2526; stroke:none;" d="M303 373L280 400L292 393L291 391L298 391L303 373M325 373L326 374L325 373M425 374L426 375L425 374M427 374L427 375L430 375L427 374z"/>
<path style="fill:#ba825c; stroke:none;" d="M91 375L92 376L91 375z"/>
<path style="fill:#3b2526; stroke:none;" d="M349.333 375.667L349.667 376.333L349.333 375.667M423 375L424 376L423 375M119 376C111.665 406.724 119.579 435.573 122 466L121 466C118.492 459.097 114.209 449.139 108 445C108.421 454.213 113.402 462.591 118.591 470C120.753 473.086 126.169 477.923 125.883 481.961C125.671 484.952 122.022 487.211 120 489L120 490L130 500L139 498C141.798 500.798 149.975 501.783 151 497L148 498L146 497L147 494L150 496L151 495L151 494L151 493C146.397 490.678 145.531 487.478 148 483L145 482L146 464L145 464L143 498C130.512 484.798 127.171 464.27 125 447L122 448L120.184 434L117.951 400L119 376z"/>
<path style="fill:#90453c; stroke:none;" d="M369 376L369 377L373 377L369 376M375.667 376.333L376.333 376.667L375.667 376.333z"/>
<path style="fill:#3b2526; stroke:none;" d="M425.667 376.333L426.333 376.667L425.667 376.333z"/>
<path style="fill:#ba825c; stroke:none;" d="M482 376L485 383L486 383L482 376M90 377L91 378L90 377z"/>
<path style="fill:#90453c; stroke:none;" d="M176 377L176 378L179 379L176 377z"/>
<path style="fill:#ba825c; stroke:none;" d="M89 378C82.7788 388.659 76.8154 401.707 75 414L76 414L84.3086 391L89 378z"/>
<path style="fill:#90453c; stroke:none;" d="M416 378L417 379L416 378z"/>
<path style="fill:#3b2526; stroke:none;" d="M424.667 379.333L425.333 379.667L424.667 379.333z"/>
<path style="fill:#90453c; stroke:none;" d="M165 380L165 384L164 384L164 382L163 382L165 389L167 386L165 380M381 381L372 385L381 385L380 389L368 388L368 391L382 391L381 381z"/>
<path style="fill:#3b2526; stroke:none;" d="M334 383L335 384L334 383z"/>
<path style="fill:#1f3f9b; stroke:none;" d="M355.333 383.667L355.667 384.333L355.333 383.667z"/>
<path style="fill:#90453c; stroke:none;" d="M415 384L415 385L420 384L415 384z"/>
<path style="fill:#ba825c; stroke:none;" d="M486.333 383.667L486.667 384.333L486.333 383.667z"/>
<path style="fill:#3b2526; stroke:none;" d="M319 384L320 385L319 384z"/>
<path style="fill:#90453c; stroke:none;" d="M416 387L416 388L418 391L425 391L420 389L420 388L428 388C424.107 383.388 421.077 385.443 416 387z"/>
<path style="fill:#ba825c; stroke:none;" d="M487 385L489 390L490 390L487 385z"/>
<path style="fill:#90453c; stroke:none;" d="M173 386L172 387L172 388L173 389L174 389L175 388L175 387L173 386z"/>
<path style="fill:#ba825c; stroke:none;" d="M288 386L289 387L288 386z"/>
<path style="fill:#3b2526; stroke:none;" d="M301 386L300 390L301 390L301 386z"/>
<path style="fill:#1f3f9b; stroke:none;" d="M295 387L296 388L295 387z"/>
<path style="fill:#3b2526; stroke:none;" d="M332 387L332 389L334 389L334 387L332 387z"/>
<path style="fill:#90453c; stroke:none;" d="M362 392L366 392L365 389L362 392z"/>
<path style="fill:#3b2526; stroke:none;" d="M331 390L330 401C333.825 398.52 333 394.192 333 390L331 390z"/>
<path style="fill:#ba825c; stroke:none;" d="M490 390L492 396L493 396L490 390M231 391L232 392L231 391z"/>
<path style="fill:#90453c; stroke:none;" d="M428 393L432 395L433 391L428 393M169 392L170 393L169 392M174 392L175 393L174 392M363 404C368.502 405.222 372.961 406.501 378 403L368 404L370 399L364 395L376 396C373.731 392.749 364.68 390.11 362.718 395.299C361.812 397.697 363.252 401.345 363 404z"/>
<path style="fill:#3b2526; stroke:none;" d="M225 393L226 394L225 393z"/>
<path style="fill:#ba825c; stroke:none;" d="M234 393L234 395L236 393L234 393z"/>
<path style="fill:#3b2526; stroke:none;" d="M226.667 394.333L227.333 394.667L226.667 394.333z"/>
<path style="fill:#90453c; stroke:none;" d="M414 394L414 400L415 400L415 397L420 395L414 394M377 395L371 400L371 401L384 398L379 395L377 395z"/>
<path style="fill:#3b2526; stroke:none;" d="M229 396L232 398L229 396z"/>
<path style="fill:#90453c; stroke:none;" d="M426 397L432 401L432 396L426 397z"/>
<path style="fill:#ba825c; stroke:none;" d="M493.333 396.667L493.667 397.333L493.333 396.667z"/>
<path style="fill:#90453c; stroke:none;" d="M81.3333 397.667L81.6667 398.333L81.3333 397.667M171 398L174 401L171 398M418 399L418 400L426 400L418 399z"/>
<path style="fill:#ba825c; stroke:none;" d="M494.333 398.667L494.667 399.333L494.333 398.667M255 400L256 401L255 400z"/>
<path style="fill:#3b2526; stroke:none;" d="M279 400L275 402L275 403L279 400z"/>
<path style="fill:#ba825c; stroke:none;" d="M495.333 400.667L495.667 401.333L495.333 400.667M496.333 402.667L496.667 403.333L496.333 402.667z"/>
<path style="fill:#90453c; stroke:none;" d="M159 403L160 404L159 403z"/>
<path style="fill:#3b2526; stroke:none;" d="M270 404L272 406L272 404L270 404z"/>
<path style="fill:#ba825c; stroke:none;" d="M497.333 404.667L497.667 405.333L497.333 404.667z"/>
<path style="fill:#3b2526; stroke:none;" d="M242 405L242 407L244 407L242 405M267.667 405.333L268.333 405.667L267.667 405.333z"/>
<path style="fill:#90453c; stroke:none;" d="M363 405L363 409L364 409L365 405L363 405z"/>
<path style="fill:#3b2526; stroke:none;" d="M263 407L263 408L268 408L263 407z"/>
<path style="fill:#ba825c; stroke:none;" d="M498.333 406.667L498.667 407.333L498.333 406.667z"/>
<path style="fill:#90453c; stroke:none;" d="M169 409L173 408L169 409z"/>
<path style="fill:#3b2526; stroke:none;" d="M272 407L271 409L272 407z"/>
<path style="fill:#90453c; stroke:none;" d="M376 407L376 408L379 408L376 407M371 408L371 410L375 410L375 408L371 408z"/>
<path style="fill:#ba825c; stroke:none;" d="M499.333 408.667L499.667 409.333L499.333 408.667z"/>
<path style="fill:#90453c; stroke:none;" d="M381 409L382 410L381 409M170 410L170 412L172 412L172 410L170 410z"/>
<path style="fill:#3b2526; stroke:none;" d="M408.667 410.333L409.333 410.667L408.667 410.333z"/>
<path style="fill:#90453c; stroke:none;" d="M418 410L418 412L420 412L420 410L418 410M363 411L363 414L364 414L363 411M378 411L379 412L378 411M368 413L366 414L366 415L368 413z"/>
<path style="fill:#ba825c; stroke:none;" d="M74 414L66 440L67 440C69.2307 433.026 76.1561 421.104 74 414z"/>
<path style="fill:#90453c; stroke:none;" d="M377.667 414.333L378.333 414.667L377.667 414.333M171.667 415.333L172.333 415.667L171.667 415.333z"/>
<path style="fill:#3b2526; stroke:none;" d="M354 415L355 416L354 415z"/>
<path style="fill:#90453c; stroke:none;" d="M372 416L372 418L374 418L374 416L372 416M74 417L75 418L74 417M367 418L368 419L367 418M404.667 418.333L405.333 418.667L404.667 418.333M407 418L408 419L407 418M363 419L364 420L363 419M392 453L396 449L410 448C411.268 443.771 413.819 443.693 415 448C416.861 443.438 415.816 424.112 411.486 421.028C408.137 418.642 402.659 420.883 399 421.219C395.787 421.514 390.259 420.642 388.067 423.728C384.665 428.517 390.66 447.385 392 453z"/>
<path style="fill:#3b2526; stroke:none;" d="M439 421L440 422L439 421z"/>
<path style="fill:#90453c; stroke:none;" d="M421 422L421 425L423 424L423 423L421 422M72 423L73 424L72 423z"/>
<path style="fill:#3b2526; stroke:none;" d="M158 423L159 428L160 428L158 423z"/>
<path style="fill:#90453c; stroke:none;" d="M416 423L417 424L416 423z"/>
<path style="fill:#3b2526; stroke:none;" d="M438.333 429.667L438.667 430.333L438.333 429.667z"/>
<path style="fill:#90453c; stroke:none;" d="M69 431L70 432L69 431M165 431L166 432L165 431z"/>
<path style="fill:#3b2526; stroke:none;" d="M151 435L151 438L152 438L151 435M150 439L151 440L150 439z"/>
<path style="fill:#90453c; stroke:none;" d="M160 439L161 440L160 439z"/>
<path style="fill:#ba825c; stroke:none;" d="M65 440L62 452L63 452L65 440z"/>
<path style="fill:#3b2526; stroke:none;" d="M106 440L107 441L106 440M456 440L457 441L456 440M150 441L151 442L150 441M408 442L409 443L408 442z"/>
<path style="fill:#90453c; stroke:none;" d="M65 443L66 444L65 443z"/>
<path style="fill:#3b2526; stroke:none;" d="M107.333 443.667L107.667 444.333L107.333 443.667M149 444L147 458L148 458L149 444z"/>
<path style="fill:#90453c; stroke:none;" d="M412 445L411 449L412 449L412 445z"/>
<path style="fill:#3b2526; stroke:none;" d="M445.333 446.667L445.667 447.333L445.333 446.667M157 447L155 448L155 449L157 447M162 447L163 448L162 447M400.667 447.333L401.333 447.667L400.667 447.333z"/>
<path style="fill:#90453c; stroke:none;" d="M63 449L64 450L63 449z"/>
<path style="fill:#3b2526; stroke:none;" d="M449 449L450 450L449 449z"/>
<path style="fill:#90453c; stroke:none;" d="M416.333 450.667L416.667 451.333L416.333 450.667z"/>
<path style="fill:#3b2526; stroke:none;" d="M447 451L448 452L447 451z"/>
<path style="fill:#ba825c; stroke:none;" d="M61 453L61 456L62 456L61 453z"/>
<path style="fill:#3b2526; stroke:none;" d="M161 453L161 456L163 456L163 453L161 453z"/>
<path style="fill:#90453c; stroke:none;" d="M61.3333 456.667L61.6667 457.333L61.3333 456.667z"/>
<path style="fill:#ba825c; stroke:none;" d="M60 458L55 484L56 484L60 458z"/>
<path style="fill:#3b2526; stroke:none;" d="M146 459L146 464L147 464L148 459L146 459z"/>
<path style="fill:#90453c; stroke:none;" d="M60 463L61 464L60 463M59 467L60 468L59 467z"/>
<path style="fill:#3b2526; stroke:none;" d="M360 471L361 472L360 471M172 477L172.028 498.397L192 500L192 494C186.835 493.347 180.786 493.653 179 488C181.867 488.002 202.579 488.093 192.397 480.028C188.768 477.154 176.736 477.374 172 477M324 500L335 500C334.848 497.476 333.953 493.879 335.322 491.573C339.543 484.465 346.446 493.599 343 500L356 500C355.998 483.405 351.099 476.466 334.004 478.725C331.388 479.071 325.776 478.216 324.028 480.614C321.524 484.049 324 495.58 324 500M133 480L134 481L133 480M200 500L210 500C210.127 489.28 221.357 490.195 221 500L226 500C227.394 495.306 230.326 494.256 235 494C229.823 483.105 221.149 481.276 210 480.985C207.312 480.915 202.029 479.176 200.039 481.614C197.376 484.874 200 495.837 200 500M277 495C285.722 495 304.231 488.038 306 500L321 500C319.129 476.493 284.736 473.482 277 495M237 494L274 495C270.87 481.796 260.185 482 249 482C246.02 482 240.147 480.927 238.028 483.603C236.089 486.051 237 491.073 237 494z"/>
<path style="fill:#ba825c; stroke:none;" d="M54 484L50 500L51 500C53.2413 495.534 55.7497 488.881 54 484z"/>
<path style="fill:#3b2526; stroke:none;" d="M368 486L367 488L369 488L368 486M156 487L157 488L156 487z"/>
<path style="fill:#90453c; stroke:none;" d="M54 488L55 489L54 488z"/>
<path style="fill:#1f3f9b; stroke:none;" d="M335 500C336.642 499.994 338.391 500.118 340.02 499.852C354.909 497.418 335.799 481.821 334.377 493.442C334.118 495.556 334.745 497.906 335 500M210 500C212.798 500 218.084 500.959 220.353 498.972C224.711 495.156 213.608 487.602 210.603 493.433C209.643 495.297 210.007 497.98 210 500z"/>
<path style="fill:#3b2526; stroke:none;" d="M370 491L371 500L373 500L370 491z"/>
<path style="fill:#1f3f9b; stroke:none;" d="M293 495L305 496C301.909 491.458 296.8 491.123 293 495z"/>
<path style="fill:#90453c; stroke:none;" d="M53 493L54 494L53 493z"/>
<path style="fill:#1f3f9b; stroke:none;" d="M252 493L252 494L257 494L252 493z"/>
<path style="fill:#90453c; stroke:none;" d="M229 494L229 495L232 495L229 494z"/>
<path style="fill:#ba825c; stroke:none;" d="M232 494L232 495L242 495L232 494z"/>
<path style="fill:#90453c; stroke:none;" d="M242 494L242 495L251 495L242 494z"/>
<path style="fill:#ba825c; stroke:none;" d="M251.667 494.333L252.333 494.667L251.667 494.333z"/>
<path style="fill:#90453c; stroke:none;" d="M253 494L253 495L265 495L253 494M227 495L226 500L227 500L227 495z"/>
<path style="fill:#ba825c; stroke:none;" d="M228 495L229 500L228 495z"/>
<path style="fill:#ddcdb8; stroke:none;" d="M304 500L304 497C285.174 494.621 264.983 495 246 495C243.509 495 228.058 493.484 228.921 497.83C229.713 501.815 243.938 500 247 500L304 500z"/>
<path style="fill:#ba825c; stroke:none;" d="M262 495L262 496L289 496L262 495z"/>
<path style="fill:#90453c; stroke:none;" d="M289.667 495.333L290.333 495.667L289.667 495.333z"/>
<path style="fill:#ba825c; stroke:none;" d="M291.667 495.333L292.333 495.667L291.667 495.333z"/>
<path style="fill:#90453c; stroke:none;" d="M293 495L293 496L298 496L293 495z"/>
<path style="fill:#ba825c; stroke:none;" d="M300 496L300 497L303 497L300 496z"/>
<path style="fill:#90453c; stroke:none;" d="M303 496L303 497L306 500L303 496z"/>
<path style="fill:#ba825c; stroke:none;" d="M304 497L304 500L305 500L304 497z"/>
<path style="fill:#1f3f9b; stroke:none;" d="M306 497L307 498L306 497z"/>
<path style="fill:#90453c; stroke:none;" d="M138 498L138 500L140 500L138 498M51 499L52 500L51 499z"/>
</svg>
